<?xml version="1.0" encoding="utf-8"?>
<!-- Generator: Adobe Illustrator 21.1.0, SVG Export Plug-In . SVG Version: 6.00 Build 0)  -->
<svg version="1.1" id="Layer_1" xmlns="http://www.w3.org/2000/svg" xmlns:xlink="http://www.w3.org/1999/xlink" x="0px" y="0px"
	 viewBox="0 0 1728 1296" style="enable-background:new 0 0 1728 1296;" xml:space="preserve">
<style type="text/css">
	.st0{display:none;stroke:#000000;stroke-miterlimit:10;}
	.st1{fill:none;stroke:#A7A9AC;stroke-miterlimit:10;}
	.st2{fill:none;stroke:#000000;stroke-miterlimit:10;}
	.st3{fill:none;}
	.st4{font-family:'MyriadPro-Regular';}
	.st5{font-size:12px;}
</style>
<g>
	
		<ellipse id="strike_11_" transform="matrix(0.5 -0.866 0.866 0.5 466.5733 1289.4695)" class="st0" cx="1350" cy="240.7" rx="7.2" ry="7.2"/>
	<circle id="strike" class="st0" cx="1152" cy="187.6" r="7.2"/>
	
		<ellipse id="strike_1_" transform="matrix(0.866 -0.5 0.5 0.866 7.4766 509.2437)" class="st0" cx="954" cy="240.7" rx="7.2" ry="7.2"/>
	
		<ellipse id="strike_2_" transform="matrix(0.5 -0.866 0.866 0.5 70.5733 893.4695)" class="st0" cx="809.1" cy="385.6" rx="7.2" ry="7.2"/>
	<circle id="strike_3_" class="st0" cx="756" cy="583.6" r="7.2"/>
	
		<ellipse id="strike_4_" transform="matrix(0.866 -0.5 0.5 0.866 -282.4156 509.2437)" class="st0" cx="809.1" cy="781.6" rx="7.2" ry="7.2"/>
	
		<ellipse id="strike_5_" transform="matrix(0.5 -0.866 0.866 0.5 -325.4267 1289.4695)" class="st0" cx="954" cy="926.6" rx="7.2" ry="7.2"/>
	<circle id="strike_6_" class="st0" cx="1152" cy="979.6" r="7.2"/>
	
		<ellipse id="strike_7_" transform="matrix(0.866 -0.5 0.5 0.866 -282.4156 799.1359)" class="st0" cx="1350" cy="926.6" rx="7.2" ry="7.2"/>
	
		<ellipse id="strike_8_" transform="matrix(0.5 -0.866 0.866 0.5 70.5733 1685.4695)" class="st0" cx="1494.9" cy="781.6" rx="7.2" ry="7.2"/>
	<circle id="strike_9_" class="st0" cx="1548" cy="583.6" r="7.2"/>
	
		<ellipse id="strike_10_" transform="matrix(0.866 -0.5 0.5 0.866 7.4766 799.1359)" class="st0" cx="1494.9" cy="385.6" rx="7.2" ry="7.2"/>
	<circle id="ELIPS1_1_" class="st1" cx="1152" cy="583.6" r="396"/>
</g>
<ellipse id="strike_23_" transform="matrix(0.5 -0.866 0.866 0.5 175.2009 784.7976)" class="st0" cx="767.3" cy="240.7" rx="7.2" ry="7.2"/>
<circle id="strike_22_" class="st0" cx="569.3" cy="187.6" r="7.2"/>
<ellipse id="strike_21_" transform="matrix(0.866 -0.5 0.5 0.866 -70.5964 217.8713)" class="st0" cx="371.3" cy="240.7" rx="7.2" ry="7.2"/>
<ellipse id="strike_20_" transform="matrix(0.5 -0.866 0.866 0.5 -220.7991 388.7976)" class="st0" cx="226.3" cy="385.6" rx="7.2" ry="7.2"/>
<circle id="strike_19_" class="st0" cx="173.3" cy="583.6" r="7.2"/>
<ellipse id="strike_18_" transform="matrix(0.866 -0.5 0.5 0.866 -360.1187 217.7719)" class="st0" cx="226.3" cy="780.9" rx="7.2" ry="7.2"/>
<ellipse id="strike_17_" transform="matrix(0.5 -0.866 0.866 0.5 -616.7991 784.7976)" class="st0" cx="371.3" cy="926.6" rx="7.2" ry="7.2"/>
<ellipse id="strike_15_" transform="matrix(0.866 -0.5 0.5 0.866 -360.4886 507.7634)" class="st0" cx="767.3" cy="926.6" rx="7.2" ry="7.2"/>
<ellipse id="strike_14_" transform="matrix(0.5 -0.866 0.866 0.5 -220.7991 1180.7976)" class="st0" cx="912.2" cy="781.6" rx="7.2" ry="7.2"/>
<circle id="strike_13_" class="st0" cx="965.3" cy="583.6" r="7.2"/>
<ellipse id="strike_12_" transform="matrix(0.866 -0.5 0.5 0.866 -70.5964 507.7634)" class="st0" cx="912.2" cy="385.6" rx="7.2" ry="7.2"/>
<circle id="ELIPS1_2_" class="st1" cx="569.3" cy="583.6" r="396"/>
<ellipse id="strike_24_" transform="matrix(0.866 -0.5 0.5 0.866 -460.2459 586.3387)" class="st0" cx="864" cy="1152" rx="7.2" ry="7.2"/>
<ellipse id="strike_25_" transform="matrix(0.866 -0.5 0.5 0.866 -363.7842 946.3387)" class="st0" cx="1584" cy="1152" rx="7.2" ry="7.2"/>
<g id="strike_16_">
	<line class="st2" x1="581.5" y1="967.4" x2="557.1" y2="991.8"/>
	<line class="st2" x1="581.5" y1="991.8" x2="557.1" y2="967.4"/>
</g>
<rect x="556.6" y="1002.4" class="st3" width="61" height="29"/>
<text transform="matrix(1 0 0 1 556.5885 1010.9362)" class="st4 st5">12mm</text>
<rect x="864" y="1174.3" class="st3" width="61" height="29"/>
<text transform="matrix(1 0 0 1 864 1182.8529)" class="st4 st5">6mm</text>
<rect x="1584" y="1169.5" class="st3" width="61" height="29"/>
<text transform="matrix(1 0 0 1 1584 1178.0195)" class="st4 st5">6mm</text>
<g id="strike_26_">
	<line class="st2" x1="383.5" y1="914.4" x2="359.1" y2="938.8"/>
	<line class="st2" x1="383.5" y1="938.8" x2="359.1" y2="914.4"/>
</g>
<g id="strike_27_">
	<line class="st2" x1="779.5" y1="914.4" x2="755.1" y2="938.8"/>
	<line class="st2" x1="779.5" y1="938.8" x2="755.1" y2="914.4"/>
</g>
<g id="strike_28_">
	<line class="st2" x1="238.5" y1="768.7" x2="214.1" y2="793.1"/>
	<line class="st2" x1="238.5" y1="793.1" x2="214.1" y2="768.7"/>
</g>
<g id="strike_29_">
	<line class="st2" x1="924.4" y1="769.4" x2="900" y2="793.8"/>
	<line class="st2" x1="924.4" y1="793.8" x2="900" y2="769.4"/>
</g>
<g id="strike_30_">
	<line class="st2" x1="821.3" y1="769.4" x2="796.9" y2="793.8"/>
	<line class="st2" x1="821.3" y1="793.8" x2="796.9" y2="769.4"/>
</g>
<g id="strike_31_">
	<line class="st2" x1="185.5" y1="571.4" x2="161.1" y2="595.8"/>
	<line class="st2" x1="185.5" y1="595.8" x2="161.1" y2="571.4"/>
</g>
<g id="strike_32_">
	<line class="st2" x1="768.2" y1="571.4" x2="743.8" y2="595.8"/>
	<line class="st2" x1="768.2" y1="595.8" x2="743.8" y2="571.4"/>
</g>
<g id="strike_33_">
	<line class="st2" x1="977.5" y1="571.4" x2="953.1" y2="595.8"/>
	<line class="st2" x1="977.5" y1="595.8" x2="953.1" y2="571.4"/>
</g>
<g id="strike_34_">
	<line class="st2" x1="966.2" y1="914.4" x2="941.8" y2="938.8"/>
	<line class="st2" x1="966.2" y1="938.8" x2="941.8" y2="914.4"/>
</g>
<g id="strike_35_">
	<line class="st2" x1="1164.2" y1="967.4" x2="1139.8" y2="991.8"/>
	<line class="st2" x1="1164.2" y1="991.8" x2="1139.8" y2="967.4"/>
</g>
<g id="strike_36_">
	<line class="st2" x1="1507.1" y1="769.4" x2="1482.7" y2="793.8"/>
	<line class="st2" x1="1507.1" y1="793.8" x2="1482.7" y2="769.4"/>
</g>
<g id="strike_37_">
	<line class="st2" x1="924.4" y1="373.4" x2="900" y2="397.8"/>
	<line class="st2" x1="924.4" y1="397.8" x2="900" y2="373.4"/>
</g>
<g id="strike_38_">
	<line class="st2" x1="821.3" y1="373.4" x2="796.9" y2="397.8"/>
	<line class="st2" x1="821.3" y1="397.8" x2="796.9" y2="373.4"/>
</g>
<g id="strike_39_">
	<line class="st2" x1="966.2" y1="228.5" x2="941.8" y2="252.9"/>
	<line class="st2" x1="966.2" y1="252.9" x2="941.8" y2="228.5"/>
</g>
<g id="strike_40_">
	<line class="st2" x1="779.5" y1="228.5" x2="755.1" y2="252.9"/>
	<line class="st2" x1="779.5" y1="252.9" x2="755.1" y2="228.5"/>
</g>
<g id="strike_41_">
	<line class="st2" x1="383.5" y1="228.5" x2="359.1" y2="252.9"/>
	<line class="st2" x1="383.5" y1="252.9" x2="359.1" y2="228.5"/>
</g>
<g id="strike_42_">
	<line class="st2" x1="238.5" y1="373.4" x2="214.1" y2="397.8"/>
	<line class="st2" x1="238.5" y1="397.8" x2="214.1" y2="373.4"/>
</g>
<g id="strike_43_">
	<line class="st2" x1="1507.1" y1="373.4" x2="1482.7" y2="397.8"/>
	<line class="st2" x1="1507.1" y1="397.8" x2="1482.7" y2="373.4"/>
</g>
<g id="strike_44_">
	<line class="st2" x1="1164.2" y1="175.4" x2="1139.8" y2="199.8"/>
	<line class="st2" x1="1164.2" y1="199.8" x2="1139.8" y2="175.4"/>
</g>
<g id="strike_45_">
	<line class="st2" x1="1560.2" y1="571.4" x2="1535.8" y2="595.8"/>
	<line class="st2" x1="1560.2" y1="595.8" x2="1535.8" y2="571.4"/>
</g>
<g id="strike_46_">
	<line class="st2" x1="1362.2" y1="914.4" x2="1337.8" y2="938.8"/>
	<line class="st2" x1="1362.2" y1="938.8" x2="1337.8" y2="914.4"/>
</g>
<g id="strike_47_">
	<line class="st2" x1="876.2" y1="1139.8" x2="851.8" y2="1164.2"/>
	<line class="st2" x1="876.2" y1="1164.2" x2="851.8" y2="1139.8"/>
</g>
<g id="strike_48_">
	<line class="st2" x1="1596.2" y1="1139.8" x2="1571.8" y2="1164.2"/>
	<line class="st2" x1="1596.2" y1="1164.2" x2="1571.8" y2="1139.8"/>
</g>
<g id="strike_49_">
	<line class="st2" x1="581.5" y1="175.4" x2="557.1" y2="199.8"/>
	<line class="st2" x1="581.5" y1="199.8" x2="557.1" y2="175.4"/>
</g>
<g id="strike_50_">
	<line class="st2" x1="1362.2" y1="228.5" x2="1337.8" y2="252.9"/>
	<line class="st2" x1="1362.2" y1="252.9" x2="1337.8" y2="228.5"/>
</g>
</svg>
